<?xml version="1.0" encoding="UTF-8" standalone="no"?>
<svg
   width="60"
   height="59"
   viewBox="0 0 60 59"
   fill="none"
   version="1.1"
   id="svg1"
   sodipodi:docname="logo bored jar.svg"
   inkscape:version="1.3 (0e150ed6c4, 2023-07-21)"
   xmlns:inkscape="http://www.inkscape.org/namespaces/inkscape"
   xmlns:sodipodi="http://sodipodi.sourceforge.net/DTD/sodipodi-0.dtd"
   xmlns="http://www.w3.org/2000/svg"
   xmlns:svg="http://www.w3.org/2000/svg">
  <defs
     id="defs1" />
  <sodipodi:namedview
     id="namedview1"
     pagecolor="#ffffff"
     bordercolor="#666666"
     borderopacity="1.0"
     inkscape:showpageshadow="2"
     inkscape:pageopacity="0.0"
     inkscape:pagecheckerboard="0"
     inkscape:deskcolor="#d1d1d1"
     inkscape:zoom="5.6568543"
     inkscape:cx="43.575455"
     inkscape:cy="6.5407377"
     inkscape:window-width="1920"
     inkscape:window-height="1017"
     inkscape:window-x="-8"
     inkscape:window-y="-8"
     inkscape:window-maximized="1"
     inkscape:current-layer="svg1" />
  <rect
     x="1"
     width="59"
     height="59"
     rx="10"
     fill="white"
     id="rect1" />
  <path
     id="rect2"
     style="fill:#ffffff;stroke:none;stroke-width:0.6;stroke-linecap:round;stroke-miterlimit:10.6;stroke-dasharray:0.6, 1.8;paint-order:stroke fill markers"
     d="m 10.689453,12.586247 v 20.482422 c -0.0047,1.569499 0.350344,6.8125 -2.152344,6.8125 -1.244988,0 -1.016314,-1.359485 -1.246093,-1.646484 H 1.0292964 c 0,0 -0.085111,1.465332 0.2890625,2.832031 0.5921094,1.737198 1.5933924,3.236485 2.7382812,4.083984 1.1717289,0.8673 3.2905759,1.379935 5.1210939,1.240235 1.841349,-0.1404 3.378302,-0.685948 4.5625,-2.060547 1.193099,-1.374699 1.982195,-3.052352 2.371094,-5.03125 0.1205,-0.5996 0.216881,-1.310173 0.300781,-2.076172 v 8.607422 l 23.550782,-0.02734 H 40.375 45.994141 V 32.320626 h 0.53125 c 0.547999,0 1.037603,0.257885 1.470703,0.771485 0.318099,0.392699 0.681391,1.244295 1.08789,2.558593 l 3.207032,10.152344 h 6.787109 l -2.902344,-9.628906 c -0.1414,-0.4834 -0.423456,-1.171101 -0.847656,-2.0625 -0.4153,-0.891199 -0.736031,-1.474094 -0.957031,-1.746094 -0.327,-0.407799 -0.846701,-0.814957 -1.5625,-1.222656 0.892599,-0.3475 1.594822,-0.785754 2.107422,-1.314453 0.804199,-0.830799 1.434931,-1.910936 1.894531,-3.240235 C 57.270046,25.243706 57.5,23.649853 57.5,21.806954 c 0,-2.114798 -0.299391,-3.903942 -0.900391,-5.36914 -0.600899,-1.480499 -1.392047,-2.49331 -2.373047,-3.03711 -0.980899,-0.543699 -2.399961,-0.814453 -4.255859,-0.814453 H 39.962891 v 7.503906 C 39.138291,18.684259 37.148698,17.61696 34.6875,17.310861 h 3.867188 c 0.435099,0 0.785156,-0.21161 0.785156,-0.47461 v -3.701172 c 0,-0.262999 -0.350057,-0.472656 -0.785156,-0.472656 h -20.375 c -0.4351,0 -0.785157,0.209657 -0.785157,0.472656 v 3.701172 c 0,0.263 0.350057,0.47461 0.785157,0.47461 h 3.919921 c -2.588697,0.321999 -4.654378,1.485601 -5.392578,3 v -7.72461 z m -6.5507816,0.06836 c -0.4272396,0 -0.831231,0.03788 -1.2128907,0.113281 -0.3816696,0.0756 -0.7162165,0.197434 -1.0039062,0.365234 -0.2876697,0.1678 -0.5102527,0.380672 -0.6640625,0.638672 -0.1538098,0.2558 -0.2285156,0.592366 -0.2285156,1.009766 v 2.117187 H 7.291016 V 14.78156 c 0,-0.2538 -0.05597,-0.53721 -0.169922,-0.84961 C 7.038504,13.703351 6.8728,13.490625 6.6249995,13.291325 6.3743395,13.092126 6.0646945,12.935628 5.6972651,12.824529 5.3269955,12.711229 4.8080307,12.654607 4.1386714,12.654607 Z m 0.039063,1.43164 c 0.5012995,0 0.8628708,0.03417 1.0878906,0.105469 0.2221598,0.0713 0.3795532,0.171075 0.4707031,0.296875 0.0883,0.1258 0.1328125,0.338919 0.1328125,0.636719 v 0.347656 H 2.445312 v -0.355469 c 0.00781,-0.353655 0.1241909,-0.631616 0.3691406,-0.791015 0.2449398,-0.1594 0.6996219,-0.240235 1.3632818,-0.240235 z m 1.6953125,3.597656 v 2.460938 h -1.234375 v -2.21875 H 3.3613276 v 2.21875 H 2.3652339 V 17.754216 H 1.0292964 v 3.818359 H 7.291016 v -3.888672 z m 40.1210951,1.607422 h 2.636718 c 1.095799,0 1.844488,0.287229 2.242188,0.861328 0.397699,0.574 0.595703,1.398105 0.595703,2.470704 0,0.725099 -0.128467,1.366781 -0.384766,1.925781 -0.410199,0.902599 -1.331495,1.321741 -2.558593,1.494141 h -2.53125 z m -17.660157,1.9375 h 0.119141 c 3.368797,0 6.080078,1.193936 6.080078,2.677735 v 2.732422 11.832031 2.677734 H 28.453125 28.333984 22.253906 V 38.471013 26.638982 23.90656 c 0,-1.483799 2.711282,-2.677735 6.080079,-2.677735 z M 7.291017,22.0257 5.4765625,22.715153 c -0.09115,0.0336 -0.220632,0.100472 -0.3886719,0.201172 -0.1680598,0.0986 -0.2787982,0.174063 -0.3300781,0.226563 -0.07689,0.0776 -0.1535688,0.201194 -0.2304687,0.371094 -0.06552,-0.2118 -0.148377,-0.3784 -0.2480469,-0.5 C 4.122627,22.823082 3.9186085,22.673763 3.6679688,22.564763 3.414459,22.455763 3.1150678,22.4007 2.7675781,22.4007 c -0.3987596,0 -0.7373921,0.07029 -1.0136719,0.212891 -0.2791197,0.1426 -0.4697157,0.331653 -0.5722656,0.564453 -0.1025399,0.2328 -0.1523437,0.567413 -0.1523437,1.007813 v 2.375 H 7.291016 V 25.131169 H 4.7480464 v -0.126953 c 0,-0.1301 0.049654,-0.244956 0.1464843,-0.347656 0.07407,-0.0755 0.2346222,-0.161313 0.4824219,-0.257813 L 7.291016,23.635075 Z m -4.3710951,1.804688 c 0.1367198,0 0.2598445,0.031 0.3652343,0.0918 0.1053799,0.0587 0.1696726,0.136069 0.1953126,0.230468 0.05696,0.1866 0.085937,0.311954 0.085937,0.376954 v 0.601562 H 2.2929683 v -0.626953 c -1e-7,-0.26 0.053869,-0.43685 0.1621093,-0.53125 0.1082299,-0.0944 0.262624,-0.142578 0.4648438,-0.142578 z m 1.1933593,3.517578 c -1.0082889,0 -1.7913399,0.207747 -2.3496093,0.623047 -0.5611195,0.415199 -0.8417969,1.005938 -0.8417969,1.773437 0,0.7487 0.2838462,1.332454 0.8535156,1.751953 0.5696495,0.4194 1.3661329,0.63086 2.3886719,0.63086 0.7320093,0 1.3410655,-0.10656 1.828125,-0.31836 0.48706,-0.211799 0.8452935,-0.488425 1.0703135,-0.828124 0.225,-0.3418 0.335937,-0.77287 0.335937,-1.292969 0,-0.5117 -0.127529,-0.937497 -0.386718,-1.279297 -0.2620505,-0.3439 -0.6285845,-0.60681 -1.0957044,-0.78711 C 5.4460561,27.438904 4.8453105,27.347966 4.1132812,27.347966 Z m -0.025391,1.425781 c 0.7006893,0 1.1864415,0.0822 1.4570313,0.25 0.2705997,0.1677 0.40625,0.406791 0.40625,0.712891 0,0.2978 -0.1397259,0.533031 -0.4160157,0.707031 -0.2762797,0.172 -0.7309618,0.257813 -1.3632812,0.257813 -0.6380194,0 -1.094814,-0.08772 -1.3710938,-0.261719 -0.2762997,-0.1741 -0.4140624,-0.404107 -0.4140624,-0.691406 -10e-8,-0.2999 0.1367165,-0.536938 0.4101562,-0.710938 0.2705897,-0.1762 0.7014262,-0.263672 1.2910156,-0.263672 z m 1.421875,3.917969 c -0.3987496,0 -0.7301377,0.07913 -0.9921875,0.236328 -0.2648897,0.1552 -0.4503638,0.399169 -0.5585937,0.730469 -0.1025399,-0.2181 -0.241379,-0.382794 -0.4179688,-0.496094 -0.2648897,-0.1698 -0.5828453,-0.255859 -0.953125,-0.255859 -0.4414795,0 -0.8122584,0.118422 -1.1113281,0.357422 -0.2990797,0.236999 -0.4472656,0.578838 -0.4472656,1.023437 v 2.667969 H 7.291016 V 34.49445 c 0,-0.1048 -0.02702,-0.317872 -0.08399,-0.638671 -0.04272,-0.2412 -0.111078,-0.421416 -0.205078,-0.541016 -0.15095,-0.1929 -0.3560355,-0.343978 -0.6152345,-0.455078 -0.25919,-0.1112 -0.5522437,-0.167869 -0.8769534,-0.167969 z m -0.2167968,1.429687 c 0.1993798,10e-7 0.3569326,0.04979 0.4765624,0.150391 0.1167799,0.1007 0.1757807,0.274132 0.1757807,0.519531 v 0.726563 H 4.6777339 v -0.724609 c 0,-0.2496 0.056002,-0.422885 0.1699218,-0.521485 0.1110799,-0.1006 0.2601727,-0.150391 0.4453127,-0.150391 z m -2.4140626,0.181641 c 0.1965399,0 0.3477452,0.04471 0.453125,0.132813 0.1025399,0.086 0.1523438,0.24059 0.1523438,0.46289 v 0.619141 h -1.1875 v -0.628906 c 0,-0.216 0.051767,-0.367125 0.1542969,-0.453125 0.1025399,-0.0881 0.2454445,-0.132813 0.4277343,-0.132813 z"
     sodipodi:nodetypes="ccscccccccccccccsccccccccccsccscccssssssssccccscscsccscccssccscccssccccccccccccccscsccccsssccccccccsscccccccsccsccccsccccsccsccssssscscsscsccsscscscscsccccscsccscccccscsccscsscsccscs" />
</svg>
